# xmcd
#
# Track frame offsets:
#	150
#	3992
#	13010
#	19635
#	33569
#	41936
#	58485
#	71060
#	92348
#	109817
#	129166
#	139232
#	157864
#	179067
#	198620
#
# Disc length: 2685
#
# Revision: 2
# Processed by: cddbd v1.5.1PL0 Copyright (c) Steve Scherf et al.
# Submitted via: FreeRIP 2.60 
# Normalized: r1:DSETVAR1
#
DISCID=d00a7b0f
DTITLE=Various Artist - G-Unit Radio Part 3
DYEAR=2003
DGENRE=Rap
TTITLE0=Lebron James - Lebron James Intro
TTITLE1=2Pac - 2Pac- Sleep rmx
TTITLE2=50 Cent - 50 Cent- The Illest
TTITLE3=50 Cent - 50 Cent- Move
TTITLE4=50 Cent - 50 Cent- Freestyle
TTITLE5=50 cent - 50 Cent- So Hard
TTITLE6=Lloyd Banks - Lloyd Banks- Freestyle
TTITLE7=50 Cent - Pimp (G-Unit Remix) (Ft. Snoop Dogg and G-Unit)
TTITLE8=Snoop Dogg - Dick Will Do (Ft. Busta Rymes and Lloyd Banks)
TTITLE9=Fabolous - Fall Back Freestyle
TTITLE10=50 Cent - Right Thurr (G-Unit Remix) (Ft. Young Buck)
TTITLE11=50 Cent - Calicos
TTITLE12=Dr. Dre - Shit Hits The Fan
TTITLE13=Snoop Dogg - So Wrong
TTITLE14=Lebron James - Lebron James Outro
EXTD=A Sada Pop Mixtape
EXTT0=
EXTT1=
EXTT2=
EXTT3=
EXTT4=
EXTT5=
EXTT6=
EXTT7=
EXTT8=
EXTT9=
EXTT10=
EXTT11=
EXTT12=
EXTT13=
EXTT14=
PLAYORDER=
